<?xml version="1.0" encoding="UTF-8"?>
<!DOCTYPE svg PUBLIC "-//W3C//DTD SVG 1.1//EN" "http://www.w3.org/Graphics/SVG/1.1/DTD/svg11.dtd">
<svg xmlns="http://www.w3.org/2000/svg" version="1.1" width="304px" height="283px" style="shape-rendering:geometricPrecision; text-rendering:geometricPrecision; image-rendering:optimizeQuality; fill-rule:evenodd; clip-rule:evenodd" xmlns:xlink="http://www.w3.org/1999/xlink">
<g><path style="opacity:1" fill="#fdfefe" d="M -0.5,-0.5 C 100.833,-0.5 202.167,-0.5 303.5,-0.5C 303.5,93.8333 303.5,188.167 303.5,282.5C 202.167,282.5 100.833,282.5 -0.5,282.5C -0.5,188.167 -0.5,93.8333 -0.5,-0.5 Z"/></g>
<g><path style="opacity:1" fill="#11706b" d="M 79.5,28.5 C 79.1679,39.5202 79.5012,50.5202 80.5,61.5C 81.1067,61.3764 81.44,61.0431 81.5,60.5C 81.8333,59.8333 82.1667,59.1667 82.5,58.5C 98.1062,51.5607 109.94,55.5607 118,70.5C 121.54,83.7411 118.374,95.0744 108.5,104.5C 102.8,107.051 96.7999,108.051 90.5,107.5C 87.0078,106.59 84.0078,104.924 81.5,102.5C 81.44,101.957 81.1067,101.624 80.5,101.5C 79.5713,102.689 79.238,104.022 79.5,105.5C 73.8333,105.5 68.1667,105.5 62.5,105.5C 62.5,102.5 62.5,99.5 62.5,96.5C 65.1667,96.5 67.8333,96.5 70.5,96.5C 70.6666,77.1638 70.5,57.8305 70,38.5C 67.6194,37.565 65.1194,37.2317 62.5,37.5C 62.5,34.5 62.5,31.5 62.5,28.5C 68.1667,28.5 73.8333,28.5 79.5,28.5 Z"/></g>
<g><path style="opacity:1" fill="#3f8e8a" d="M 79.5,28.5 C 79.8333,28.5 80.1667,28.5 80.5,28.5C 80.1722,39.3464 80.5056,50.0131 81.5,60.5C 81.44,61.0431 81.1067,61.3764 80.5,61.5C 79.5012,50.5202 79.1679,39.5202 79.5,28.5 Z"/></g>
<g><path style="opacity:1" fill="#d4e5e5" d="M 80.5,28.5 C 81.1667,38.5 81.8333,48.5 82.5,58.5C 82.1667,59.1667 81.8333,59.8333 81.5,60.5C 80.5056,50.0131 80.1722,39.3464 80.5,28.5 Z"/></g>
<g><path style="opacity:1" fill="#383838" d="M 174.5,69.5 C 175.275,74.7968 175.608,80.1301 175.5,85.5C 163.988,85.1719 152.654,85.5052 141.5,86.5C 141.328,87.4916 141.662,88.1583 142.5,88.5C 143.443,91.1092 145.11,93.1092 147.5,94.5C 151.955,98.0422 156.622,98.3755 161.5,95.5C 165.407,94.593 168.074,92.2596 169.5,88.5C 170.5,87.1667 171.5,87.1667 172.5,88.5C 174.785,90.1182 176.785,92.1182 178.5,94.5C 170.359,106.226 159.359,110.059 145.5,106C 132.645,98.444 127.811,87.2774 131,72.5C 137.269,56.409 148.435,51.5757 164.5,58C 169.104,60.7681 172.438,64.6015 174.5,69.5 Z"/></g>
<g><path style="opacity:1" fill="#90bcba" d="M 97.5,66.5 C 94.3915,66.2641 91.3915,66.5975 88.5,67.5C 89.5145,66.2353 91.0145,65.5687 93,65.5C 94.7067,65.5085 96.2067,65.8418 97.5,66.5 Z"/></g>
<g><path style="opacity:1" fill="#f9fbfb" d="M 97.5,66.5 C 101.912,67.0701 105.078,69.4034 107,73.5C 111.01,86.1523 106.677,94.1523 94,97.5C 82.113,93.7277 78.113,85.7277 82,73.5C 83.4055,70.5914 85.5722,68.5914 88.5,67.5C 91.3915,66.5975 94.3915,66.2641 97.5,66.5 Z"/></g>
<g><path style="opacity:1" fill="#f4f4f4" d="M 164.5,73.5 C 161.232,74.8222 157.565,75.4888 153.5,75.5C 149.435,75.4888 145.768,74.8222 142.5,73.5C 146.607,65.6186 152.607,63.7853 160.5,68C 162.464,69.451 163.797,71.2843 164.5,73.5 Z"/></g>
<g><path style="opacity:1" fill="#b2b2b2" d="M 142.5,73.5 C 145.768,74.8222 149.435,75.4888 153.5,75.5C 157.565,75.4888 161.232,74.8222 164.5,73.5C 165.404,74.209 165.737,75.209 165.5,76.5C 157.5,76.5 149.5,76.5 141.5,76.5C 141.263,75.209 141.596,74.209 142.5,73.5 Z"/></g>
<g><path style="opacity:1" fill="#565656" d="M 174.5,69.5 C 177.448,74.9345 178.114,80.6012 176.5,86.5C 164.833,86.5 153.167,86.5 141.5,86.5C 152.654,85.5052 163.988,85.1719 175.5,85.5C 175.608,80.1301 175.275,74.7968 174.5,69.5 Z"/></g>
<g><path style="opacity:1" fill="#c3c3c3" d="M 141.5,86.5 C 153.167,86.5 164.833,86.5 176.5,86.5C 175.167,87.1667 173.833,87.8333 172.5,88.5C 171.5,87.1667 170.5,87.1667 169.5,88.5C 160.5,87.1667 151.5,87.1667 142.5,88.5C 141.662,88.1583 141.328,87.4916 141.5,86.5 Z"/></g>
<g><path style="opacity:1" fill="#f9f9f9" d="M 169.5,88.5 C 168.074,92.2596 165.407,94.593 161.5,95.5C 156.797,95.5628 152.13,95.2295 147.5,94.5C 145.11,93.1092 143.443,91.1092 142.5,88.5C 151.5,87.1667 160.5,87.1667 169.5,88.5 Z"/></g>
<g><path style="opacity:1" fill="#c8c8c8" d="M 202.5,89.5 C 203.167,106.167 203.833,122.833 204.5,139.5C 204.167,140.167 203.833,140.833 203.5,141.5C 202.503,124.341 202.17,107.008 202.5,89.5 Z"/></g>
<g><path style="opacity:1" fill="#373737" d="M 203.5,141.5 C 203.833,140.833 204.167,140.167 204.5,139.5C 209.167,132.5 213.833,125.5 218.5,118.5C 223.167,118.5 227.833,118.5 232.5,118.5C 232.5,121.167 232.5,123.833 232.5,126.5C 229.99,126.054 227.99,126.72 226.5,128.5C 224.983,128.511 223.816,129.177 223,130.5C 220.116,134.434 217.616,138.601 215.5,143C 218.426,148.262 221.759,153.262 225.5,158C 228.146,158.497 230.813,158.664 233.5,158.5C 233.5,161.5 233.5,164.5 233.5,167.5C 228.456,167.827 223.456,167.494 218.5,166.5C 215.882,161.587 212.548,157.254 208.5,153.5C 202.7,160.298 197.7,167.631 193.5,175.5C 192.502,150.339 192.169,125.005 192.5,99.5C 191.167,99.5 189.833,99.5 188.5,99.5C 187.209,99.7373 186.209,99.404 185.5,98.5C 185.5,95.8333 185.5,93.1667 185.5,90.5C 190.833,90.5 196.167,90.5 201.5,90.5C 201.167,107.846 201.5,125.179 202.5,142.5C 203.107,142.376 203.44,142.043 203.5,141.5 Z"/></g>
<g><path style="opacity:1" fill="#5a5a5a" d="M 202.5,89.5 C 202.17,107.008 202.503,124.341 203.5,141.5C 203.44,142.043 203.107,142.376 202.5,142.5C 201.5,125.179 201.167,107.846 201.5,90.5C 196.167,90.5 190.833,90.5 185.5,90.5C 185.5,93.1667 185.5,95.8333 185.5,98.5C 184.523,95.7131 184.19,92.7131 184.5,89.5C 190.5,89.5 196.5,89.5 202.5,89.5 Z"/></g>
<g><path style="opacity:1" fill="#cacaca" d="M 147.5,94.5 C 152.13,95.2295 156.797,95.5628 161.5,95.5C 156.622,98.3755 151.955,98.0422 147.5,94.5 Z"/></g>
<g><path style="opacity:1" fill="#c0c0c0" d="M 188.5,99.5 C 189.833,99.5 191.167,99.5 192.5,99.5C 192.169,125.005 192.502,150.339 193.5,175.5C 193.44,176.043 193.107,176.376 192.5,176.5C 191.5,151.175 191.167,125.842 191.5,100.5C 190.209,100.737 189.209,100.404 188.5,99.5 Z"/></g>
<g><path style="opacity:1" fill="#61a19e" d="M 81.5,102.5 C 80.5655,103.568 80.2322,104.901 80.5,106.5C 74.31,106.823 68.31,106.49 62.5,105.5C 68.1667,105.5 73.8333,105.5 79.5,105.5C 79.238,104.022 79.5713,102.689 80.5,101.5C 81.1067,101.624 81.44,101.957 81.5,102.5 Z"/></g>
<g><path style="opacity:1" fill="#c2dbd9" d="M 108.5,104.5 C 107.025,106.41 105.025,107.576 102.5,108C 98.3112,108.812 94.3112,108.645 90.5,107.5C 96.7999,108.051 102.8,107.051 108.5,104.5 Z"/></g>
<g><path style="opacity:1" fill="#6f6f6f" d="M 40.5,117.5 C 36.4659,117.505 32.4659,117.838 28.5,118.5C 30.4621,116.983 32.7954,116.316 35.5,116.5C 37.3693,116.507 39.036,116.84 40.5,117.5 Z"/></g>
<g><path style="opacity:1" fill="#7db1af" d="M 80.5,118.5 C 74.5,118.5 68.5,118.5 62.5,118.5C 62.5,121.5 62.5,124.5 62.5,127.5C 61.5206,124.375 61.1872,121.042 61.5,117.5C 68.0221,117.177 74.3554,117.51 80.5,118.5 Z"/></g>
<g><path style="opacity:1" fill="#595959" d="M 163.5,118.5 C 157.441,118.254 151.441,118.587 145.5,119.5C 145.611,118.883 145.944,118.383 146.5,118C 149.598,117.082 152.765,116.582 156,116.5C 158.866,116.3 161.366,116.967 163.5,118.5 Z"/></g>
<g><path style="opacity:1" fill="#585858" d="M 270.5,118.5 C 264.773,118.26 259.106,118.593 253.5,119.5C 254.347,118.034 255.68,117.2 257.5,117C 259.333,116.833 261.167,116.667 263,116.5C 265.866,116.3 268.366,116.967 270.5,118.5 Z"/></g>
<g><path style="opacity:1" fill="#393939" d="M 40.5,117.5 C 50.979,118.986 54.6457,124.986 51.5,135.5C 48.5,135.5 45.5,135.5 42.5,135.5C 42.8016,132.941 42.4682,130.607 41.5,128.5C 37.7691,126.905 34.2691,127.238 31,129.5C 30.0134,133.348 31.5134,135.348 35.5,135.5C 39.019,136.632 42.6857,137.632 46.5,138.5C 54.192,142.949 56.692,149.615 54,158.5C 48.2401,168.625 39.7401,171.958 28.5,168.5C 28.0269,167.094 27.0269,166.427 25.5,166.5C 22.2358,164.906 19.5691,162.573 17.5,159.5C 19.316,157.183 21.316,155.016 23.5,153C 24.1667,152.333 24.8333,152.333 25.5,153C 30.119,158.592 35.7856,159.925 42.5,157C 45.5135,153.444 45.1802,150.444 41.5,148C 32.6155,148.309 25.7821,144.809 21,137.5C 20.3333,133.5 20.3333,129.5 21,125.5C 22.7364,122.261 25.2364,119.927 28.5,118.5C 32.4659,117.838 36.4659,117.505 40.5,117.5 Z"/></g>
<g><path style="opacity:1" fill="#12706b" d="M 119.5,148.5 C 117.991,151.678 116.658,155.011 115.5,158.5C 105.919,170.684 94.5852,172.684 81.5,164.5C 81.44,163.957 81.1067,163.624 80.5,163.5C 79.5021,171.807 79.1688,180.14 79.5,188.5C 73.8333,188.5 68.1667,188.5 62.5,188.5C 62.5,185.5 62.5,182.5 62.5,179.5C 65.1194,179.768 67.6194,179.435 70,178.5C 70.4999,161.837 70.6666,145.17 70.5,128.5C 67.7938,128.425 65.1272,128.092 62.5,127.5C 62.5,124.5 62.5,121.5 62.5,118.5C 68.5,118.5 74.5,118.5 80.5,118.5C 80.3433,119.873 80.51,121.207 81,122.5C 91.1491,114.505 101.316,114.672 111.5,123C 118.067,130.204 120.733,138.704 119.5,148.5 Z"/></g>
<g><path style="opacity:1" fill="#393939" d="M 163.5,118.5 C 177.32,124.129 182.82,134.462 180,149.5C 175.314,164.511 165.148,171.011 149.5,169C 140.129,165.631 134.296,159.131 132,149.5C 129.26,135.994 133.76,125.994 145.5,119.5C 151.441,118.587 157.441,118.254 163.5,118.5 Z"/></g>
<g><path style="opacity:1" fill="#6d6d6d" d="M 218.5,118.5 C 223.305,117.513 228.305,117.179 233.5,117.5C 233.5,120.833 233.5,124.167 233.5,127.5C 231.097,127.448 228.764,127.781 226.5,128.5C 227.99,126.72 229.99,126.054 232.5,126.5C 232.5,123.833 232.5,121.167 232.5,118.5C 227.833,118.5 223.167,118.5 218.5,118.5 Z"/></g>
<g><path style="opacity:1" fill="#373737" d="M 270.5,118.5 C 278.235,121.236 283.235,126.57 285.5,134.5C 285.5,138.833 285.5,143.167 285.5,147.5C 273.988,147.172 262.654,147.505 251.5,148.5C 251.328,149.492 251.662,150.158 252.5,150.5C 254.77,156.424 259.103,159.09 265.5,158.5C 271.706,158.4 276.373,155.734 279.5,150.5C 280.5,149.167 281.5,149.167 282.5,150.5C 285.435,152.234 287.268,154.567 288,157.5C 277.537,170.404 265.037,172.904 250.5,165C 241.321,156.791 238.154,146.624 241,134.5C 243.204,127.802 247.371,122.802 253.5,119.5C 259.106,118.593 264.773,118.26 270.5,118.5 Z"/></g>
<g><path style="opacity:1" fill="#f8f8f8" d="M 151.5,127.5 C 169.215,128.589 174.381,137.256 167,153.5C 161.656,158.654 155.489,159.82 148.5,157C 138.493,145.905 139.493,136.072 151.5,127.5 Z"/></g>
<g><path style="opacity:1" fill="#f3f3f3" d="M 41.5,128.5 C 41.5,130.833 41.5,133.167 41.5,135.5C 39.5,135.5 37.5,135.5 35.5,135.5C 31.5134,135.348 30.0134,133.348 31,129.5C 34.2691,127.238 37.7691,126.905 41.5,128.5 Z"/></g>
<g><path style="opacity:1" fill="#fafcfb" d="M 90.5,127.5 C 107.282,128.47 112.448,136.804 106,152.5C 98.3333,160.5 90.6667,160.5 83,152.5C 77.9811,141.734 80.4811,133.4 90.5,127.5 Z"/></g>
<g><path style="opacity:1" fill="#f5f5f5" d="M 274.5,135.5 C 271.232,136.822 267.565,137.489 263.5,137.5C 259.435,137.489 255.768,136.822 252.5,135.5C 256.436,127.238 262.436,125.404 270.5,130C 272.464,131.451 273.797,133.284 274.5,135.5 Z"/></g>
<g><path style="opacity:1" fill="#c7c7c7" d="M 41.5,128.5 C 42.4682,130.607 42.8016,132.941 42.5,135.5C 45.5,135.5 48.5,135.5 51.5,135.5C 49.7078,136.309 47.7078,136.809 45.5,137C 46.056,137.383 46.3893,137.883 46.5,138.5C 42.6857,137.632 39.019,136.632 35.5,135.5C 37.5,135.5 39.5,135.5 41.5,135.5C 41.5,133.167 41.5,130.833 41.5,128.5 Z"/></g>
<g><path style="opacity:1" fill="#a3a3a3" d="M 252.5,135.5 C 255.768,136.822 259.435,137.489 263.5,137.5C 267.565,137.489 271.232,136.822 274.5,135.5C 275.404,136.209 275.737,137.209 275.5,138.5C 267.5,138.5 259.5,138.5 251.5,138.5C 251.263,137.209 251.596,136.209 252.5,135.5 Z"/></g>
<g><path style="opacity:1" fill="#6d6d6d" d="M 285.5,134.5 C 287.676,138.95 288.01,143.617 286.5,148.5C 274.833,148.5 263.167,148.5 251.5,148.5C 262.654,147.505 273.988,147.172 285.5,147.5C 285.5,143.167 285.5,138.833 285.5,134.5 Z"/></g>
<g><path style="opacity:1" fill="#cccccc" d="M 251.5,148.5 C 263.167,148.5 274.833,148.5 286.5,148.5C 285.167,149.167 283.833,149.833 282.5,150.5C 281.5,149.167 280.5,149.167 279.5,150.5C 270.5,149.167 261.5,149.167 252.5,150.5C 251.662,150.158 251.328,149.492 251.5,148.5 Z"/></g>
<g><path style="opacity:1" fill="#f8f8f8" d="M 279.5,150.5 C 276.373,155.734 271.706,158.4 265.5,158.5C 259.103,159.09 254.77,156.424 252.5,150.5C 261.5,149.167 270.5,149.167 279.5,150.5 Z"/></g>
<g><path style="opacity:1" fill="#c7dddc" d="M 119.5,148.5 C 119.493,152.554 118.16,155.887 115.5,158.5C 116.658,155.011 117.991,151.678 119.5,148.5 Z"/></g>
<g><path style="opacity:1" fill="#428f8b" d="M 81.5,164.5 C 80.5073,172.65 80.1739,180.983 80.5,189.5C 74.5,189.5 68.5,189.5 62.5,189.5C 62.5,189.167 62.5,188.833 62.5,188.5C 68.1667,188.5 73.8333,188.5 79.5,188.5C 79.1688,180.14 79.5021,171.807 80.5,163.5C 81.1067,163.624 81.44,163.957 81.5,164.5 Z"/></g>
<g><path style="opacity:1" fill="#939393" d="M 25.5,166.5 C 27.0269,166.427 28.0269,167.094 28.5,168.5C 26.9731,168.573 25.9731,167.906 25.5,166.5 Z"/></g>
<g><path style="opacity:1" fill="#d2e4e4" d="M 62.5,189.5 C 68.5,189.5 74.5,189.5 80.5,189.5C 80.0825,190.222 79.4158,190.722 78.5,191C 79.3802,192.356 79.7135,193.856 79.5,195.5C 78.7638,193.771 77.4305,192.771 75.5,192.5C 71.427,190.865 67.0937,189.865 62.5,189.5 Z"/></g>
<g><path style="opacity:1" fill="#3a8884" d="M 75.5,192.5 C 77.4305,192.771 78.7638,193.771 79.5,195.5C 79.5,195.833 79.5,196.167 79.5,196.5C 79.7373,197.791 79.404,198.791 78.5,199.5C 77.6876,197.055 76.6876,194.722 75.5,192.5 Z"/></g>
<g><path style="opacity:1" fill="#1c7570" d="M 99.5,200.5 C 107.555,203.35 113.221,208.683 116.5,216.5C 114.19,218.491 111.356,219.824 108,220.5C 105.233,217.733 102.4,214.9 99.5,212C 94.3681,210.896 93.2014,208.063 96,203.5C 96.4224,201.574 97.5891,200.574 99.5,200.5 Z"/></g>
<g><path style="opacity:1" fill="#1d7671" d="M 77.5,204.5 C 78.7634,206.696 79.7634,209.03 80.5,211.5C 78.6819,214.462 76.8485,217.462 75,220.5C 74.5065,222.134 74.3398,223.801 74.5,225.5C 76.604,225.201 78.604,225.534 80.5,226.5C 74.8616,227.993 69.195,229.326 63.5,230.5C 61.8041,219.417 65.4708,210.583 74.5,204C 75.7494,203.26 76.7494,203.427 77.5,204.5 Z"/></g>
<g><path style="opacity:1" fill="#408c88" d="M 119.5,204.5 C 120.756,204.461 121.756,204.961 122.5,206C 120.246,207.377 118.08,208.877 116,210.5C 115.5,210 115,209.5 114.5,209C 116.618,207.951 118.284,206.451 119.5,204.5 Z"/></g>
<g><path style="opacity:1" fill="#f4f8f8" d="M 79.5,196.5 C 80.4345,197.568 80.7678,198.901 80.5,200.5C 80.0766,201.265 79.7432,202.098 79.5,203C 81.1348,205.77 82.6348,208.603 84,211.5C 86.5645,209.821 89.3979,209.154 92.5,209.5C 92.5465,206.031 93.2132,202.698 94.5,199.5C 96.1834,199.619 97.85,199.952 99.5,200.5C 97.5891,200.574 96.4224,201.574 96,203.5C 93.2014,208.063 94.3681,210.896 99.5,212C 102.4,214.9 105.233,217.733 108,220.5C 111.356,219.824 114.19,218.491 116.5,216.5C 117.345,217.671 118.011,219.005 118.5,220.5C 115.779,220.963 113.112,221.629 110.5,222.5C 107.086,222.736 103.753,223.402 100.5,224.5C 102.743,225.474 105.076,225.808 107.5,225.5C 107.384,232.733 104.384,238.4 98.5,242.5C 99.7878,244.739 100.788,247.072 101.5,249.5C 100.662,249.842 100.328,250.508 100.5,251.5C 99.3376,249.014 98.0042,246.514 96.5,244C 93.1667,243.333 89.8333,243.333 86.5,244C 84.8627,247.285 84.1961,250.785 84.5,254.5C 83.2223,254.218 82.2223,253.551 81.5,252.5C 82.0049,249.479 82.6716,246.479 83.5,243.5C 80.0626,240.396 77.3959,236.729 75.5,232.5C 72.1849,231.447 68.8515,231.447 65.5,232.5C 64.8333,231.833 64.1667,231.167 63.5,230.5C 69.195,229.326 74.8616,227.993 80.5,226.5C 78.604,225.534 76.604,225.201 74.5,225.5C 74.3398,223.801 74.5065,222.134 75,220.5C 76.8485,217.462 78.6819,214.462 80.5,211.5C 79.7634,209.03 78.7634,206.696 77.5,204.5C 78.4511,203.081 78.7845,201.415 78.5,199.5C 79.404,198.791 79.7373,197.791 79.5,196.5 Z"/></g>
<g><path style="opacity:1" fill="#1a7470" d="M 94.5,199.5 C 93.2132,202.698 92.5465,206.031 92.5,209.5C 89.3979,209.154 86.5645,209.821 84,211.5C 82.6348,208.603 81.1348,205.77 79.5,203C 79.7432,202.098 80.0766,201.265 80.5,200.5C 85.1031,199.617 89.7697,199.283 94.5,199.5 Z"/></g>
<g><path style="opacity:1" fill="#8fbcba" d="M 121.5,219.5 C 129.254,220.051 129.088,221.051 121,222.5C 120.5,222.167 120,221.833 119.5,221.5C 120.243,220.818 120.909,220.151 121.5,219.5 Z"/></g>
<g><path style="opacity:1" fill="#1a746f" d="M 118.5,220.5 C 119.687,231.946 116.02,241.446 107.5,249C 105.544,250.612 103.544,250.778 101.5,249.5C 100.788,247.072 99.7878,244.739 98.5,242.5C 104.384,238.4 107.384,232.733 107.5,225.5C 108.1,224.1 109.1,223.1 110.5,222.5C 113.112,221.629 115.779,220.963 118.5,220.5 Z"/></g>
<g><path style="opacity:1" fill="#579a97" d="M 110.5,222.5 C 109.1,223.1 108.1,224.1 107.5,225.5C 105.076,225.808 102.743,225.474 100.5,224.5C 103.753,223.402 107.086,222.736 110.5,222.5 Z"/></g>
<g><path style="opacity:1" fill="#7eb2af" d="M 53.5,229.5 C 56.1873,229.336 58.854,229.503 61.5,230C 59.7216,230.704 57.8882,231.204 56,231.5C 54.6244,231.316 53.7911,230.649 53.5,229.5 Z"/></g>
<g><path style="opacity:1" fill="#1c7570" d="M 81.5,252.5 C 74.2923,249.463 68.7923,244.463 65,237.5C 64.2204,235.613 64.3871,233.946 65.5,232.5C 68.8515,231.447 72.1849,231.447 75.5,232.5C 77.3959,236.729 80.0626,240.396 83.5,243.5C 82.6716,246.479 82.0049,249.479 81.5,252.5 Z"/></g>
<g><path style="opacity:1" fill="#3f8c88" d="M 62.5,241.5 C 64.0281,241.517 64.5281,242.184 64,243.5C 62.2467,244.627 60.4134,245.627 58.5,246.5C 57.479,245.998 57.3123,245.332 58,244.5C 59.6516,243.601 61.1516,242.601 62.5,241.5 Z"/></g>
<g><path style="opacity:1" fill="#217772" d="M 100.5,251.5 C 99.3192,253.067 97.6526,253.901 95.5,254C 91.8484,254.499 88.1817,254.665 84.5,254.5C 84.1961,250.785 84.8627,247.285 86.5,244C 89.8333,243.333 93.1667,243.333 96.5,244C 98.0042,246.514 99.3376,249.014 100.5,251.5 Z"/></g>
<g><path style="opacity:1" fill="#438d89" d="M 99.5,255.5 C 103.222,257.07 104.222,259.737 102.5,263.5C 100.929,261.029 99.9294,258.363 99.5,255.5 Z"/></g>
</svg>
