<?xml version="1.0" standalone="no"?>
<!DOCTYPE svg PUBLIC "-//W3C//DTD SVG 20010904//EN"
 "http://www.w3.org/TR/2001/REC-SVG-20010904/DTD/svg10.dtd">
<svg version="1.0" xmlns="http://www.w3.org/2000/svg"
 width="304.000000pt" height="283.000000pt" viewBox="0 0 304.000000 283.000000"
 preserveAspectRatio="xMidYMid meet">

<g transform="translate(0.000000,283.000000) scale(0.100000,-0.100000)"
fill="#000000" stroke="none">
<path d="M632 2498 c3 -42 4 -43 41 -46 l37 -3 0 -294 0 -293 -40 -7 c-39 -7
-40 -8 -40 -46 l0 -39 86 0 c78 0 86 2 91 20 5 19 7 19 22 6 46 -42 136 -57
202 -34 113 39 188 179 160 302 -27 121 -108 197 -217 204 -54 4 -70 0 -110
-22 -25 -14 -48 -26 -50 -26 -2 0 -4 72 -4 160 l0 160 -91 0 -90 0 3 -42z
m412 -370 c51 -50 65 -101 45 -167 -14 -45 -64 -97 -104 -107 -68 -17 -142 27
-170 101 -40 102 35 215 142 215 37 0 49 -6 87 -42z"/>
<path d="M1455 2256 c-81 -35 -137 -121 -143 -221 -8 -117 40 -206 137 -257
106 -55 240 -27 315 65 l31 39 -40 33 -39 34 -34 -39 c-61 -72 -154 -76 -223
-10 -21 20 -39 42 -39 48 0 9 50 12 176 12 l176 0 -4 73 c-4 92 -39 156 -112
205 -42 28 -57 32 -110 32 -33 -1 -74 -7 -91 -14z m135 -101 c32 -16 70 -61
70 -81 0 -11 -25 -14 -121 -14 -120 0 -120 0 -113 23 9 30 23 47 59 69 36 22
67 23 105 3z"/>
<path d="M1862 1883 c3 -44 5 -48 33 -53 l30 -5 3 -379 2 -380 76 112 c42 62
79 112 84 112 5 0 31 -31 59 -70 l51 -70 71 0 70 0 -3 42 c-3 41 -5 43 -41 49
-44 7 -40 3 -98 87 l-47 66 49 73 c44 65 53 73 91 80 42 8 43 10 46 51 l3 42
-74 0 -74 0 -79 -117 -79 -118 -3 263 -2 262 -86 0 -85 0 3 -47z"/>
<path d="M305 1645 c-22 -8 -41 -15 -42 -15 -1 0 -14 -17 -28 -37 -18 -27 -25
-51 -25 -83 0 -86 38 -123 150 -149 79 -18 97 -33 86 -75 -15 -60 -109 -66
-166 -11 l-26 25 -34 -35 c-41 -43 -37 -55 34 -99 135 -84 295 -9 296 139 0
91 -43 133 -154 154 -64 12 -86 25 -86 50 0 27 21 41 60 41 46 0 57 -9 62 -45
3 -28 6 -30 46 -33 l43 -3 -3 68 -3 68 -41 22 c-55 30 -119 37 -169 18z"/>
<path d="M1510 1651 c-105 -32 -177 -121 -187 -230 -19 -205 172 -351 345
-265 92 46 142 132 142 244 0 160 -160 293 -300 251z m130 -123 c109 -75 84
-255 -41 -288 -66 -18 -128 15 -160 85 -24 52 -24 89 2 141 38 80 130 109 199
62z"/>
<path d="M2590 1651 c-117 -38 -179 -127 -180 -257 0 -153 109 -264 259 -264
54 0 134 35 174 76 50 50 51 59 10 93 l-38 31 -30 -34 c-16 -19 -41 -40 -53
-46 -33 -16 -104 -14 -140 4 -30 15 -72 61 -72 77 0 5 79 9 175 9 l175 0 0 59
c0 134 -91 243 -212 256 -24 2 -54 1 -68 -4z m137 -145 c56 -61 50 -66 -87
-66 -134 0 -141 4 -93 60 34 41 58 51 108 45 30 -3 48 -13 72 -39z"/>
<path d="M873 1634 c-17 -7 -34 -18 -38 -24 -10 -16 -22 -12 -28 10 -5 18 -14
20 -91 20 l-86 0 0 -45 c0 -41 2 -45 24 -45 58 0 56 10 56 -265 l0 -252 -40
-7 c-40 -6 -40 -6 -40 -52 l0 -45 88 3 87 3 3 126 3 126 57 -30 c48 -24 65
-28 108 -24 117 12 203 102 220 232 14 98 -50 221 -137 265 -45 24 -137 26
-186 4z m147 -99 c62 -32 93 -127 65 -200 -32 -86 -111 -123 -186 -89 -46 20
-72 52 -89 111 -11 36 -11 49 4 87 25 66 75 106 132 106 25 0 58 -7 74 -15z"/>
<path d="M770 890 c1 -8 8 -26 16 -40 l15 -25 -6 30 c-7 33 -25 59 -25 35z"/>
<path d="M833 818 c-27 -13 -29 -28 -8 -69 15 -27 19 -29 53 -23 47 8 50 11
58 62 l7 42 -44 -1 c-24 0 -54 -5 -66 -11z"/>
<path d="M971 789 c-17 -50 -14 -66 19 -79 17 -7 44 -28 60 -48 27 -33 30 -34
75 -28 41 7 45 10 39 29 -15 51 -104 136 -160 152 -18 5 -24 0 -33 -26z"/>
<path d="M717 742 c-21 -21 -46 -62 -57 -90 -19 -49 -26 -112 -15 -124 6 -5
154 27 162 36 3 3 -11 2 -31 -1 -21 -3 -36 -1 -36 4 0 25 25 80 47 104 24 26
24 27 7 68 -9 22 -22 41 -28 41 -7 0 -29 -17 -49 -38z"/>
<path d="M1179 750 l-24 -21 33 16 c31 15 41 25 23 25 -5 0 -19 -9 -32 -20z"/>
<path d="M1108 598 c-31 -8 -35 -12 -27 -27 17 -27 -6 -93 -47 -134 l-37 -37
18 -40 c10 -22 22 -40 28 -40 23 0 88 65 111 112 20 39 26 67 26 115 0 70 0
70 -72 51z"/>
<path d="M1028 573 c7 -3 16 -2 19 1 4 3 -2 6 -13 5 -11 0 -14 -3 -6 -6z"/>
<path d="M687 497 l-39 -12 29 -55 c28 -52 99 -120 127 -120 7 0 17 20 23 45
10 43 9 46 -16 65 -15 10 -36 35 -46 54 -21 39 -23 40 -78 23z"/>
<path d="M603 388 c-13 -6 -23 -15 -23 -20 0 -13 13 -9 40 12 27 21 18 25 -17
8z"/>
<path d="M860 350 c-17 -59 -16 -60 59 -60 39 0 72 4 76 10 3 5 -2 26 -12 47
-17 36 -21 38 -66 38 -46 1 -48 -1 -57 -35z"/>
<path d="M1016 235 c6 -31 11 -41 18 -34 2 2 -2 18 -10 34 l-14 30 6 -30z"/>
</g>
</svg>
